<svg width="26" height="26" viewBox="0 0 26 26" fill="none" xmlns="http://www.w3.org/2000/svg">
<g clip-path="url(#clip0_273_17324)">
<path d="M23.6946 0.981079H2.30761C1.57505 0.981079 0.981201 1.57493 0.981201 2.30749V23.6945C0.981201 24.4271 1.57505 25.0209 2.30761 25.0209H23.6946C24.4272 25.0209 25.021 24.4271 25.021 23.6945V2.30749C25.021 1.57493 24.4272 0.981079 23.6946 0.981079Z" fill="#3D5A98"/>
<path d="M17.5663 25.0189V15.7097H20.6904L21.1575 12.0819H17.5663V9.76624C17.5663 8.71609 17.8588 7.99906 19.3639 7.99906H21.2855V4.74906C20.355 4.65226 19.4199 4.60615 18.4844 4.61093C15.7179 4.61093 13.8125 6.29687 13.8125 9.40671V12.0819H10.6885V15.7097H13.8125V25.0189H17.5663Z" fill="white"/>
</g>
<defs>
<clipPath id="clip0_273_17324">
<rect width="26" height="26" fill="white"/>
</clipPath>
</defs>
</svg>
