<svg width="26" height="26" viewBox="0 0 26 26" fill="none" xmlns="http://www.w3.org/2000/svg">
<rect width="25.961" height="25.6" transform="translate(0 0.200012)" fill="#58052A"/>
<path d="M4.95 8.58901C4.95 10.083 5.449 11.161 6.432 11.794C7.238 12.314 8.172 12.392 8.658 12.392C8.776 12.392 8.871 12.386 8.937 12.382C8.937 12.382 8.783 13.386 9.527 14.378H9.493C8.204 14.378 4 14.647 4 18.105C4 21.621 7.861 21.8 8.636 21.8C8.697 21.8 8.733 21.798 8.733 21.798C8.741 21.798 8.796 21.8 8.891 21.8C9.388 21.8 10.673 21.738 11.866 21.157C13.414 20.407 14.199 19.098 14.199 17.272C14.199 15.508 13.003 14.458 12.13 13.69C11.597 13.221 11.136 12.817 11.136 12.424C11.136 12.024 11.473 11.723 11.898 11.342C12.587 10.727 13.237 9.85001 13.237 8.19201C13.237 6.73501 13.048 5.75601 11.883 5.13501C12.004 5.07301 12.434 5.02801 12.646 4.99801C13.277 4.91201 14.2 4.81401 14.2 4.29901V4.20001H9.601C9.555 4.20201 4.95 4.37201 4.95 8.58901ZM12.374 17.602C12.462 19.008 11.259 20.045 9.452 20.176C7.617 20.311 6.107 19.485 6.019 18.08C5.976 17.404 6.273 16.744 6.854 16.217C7.443 15.684 8.252 15.354 9.132 15.289C9.236 15.283 9.339 15.277 9.442 15.277C11.141 15.278 12.291 16.276 12.374 17.602ZM11.173 7.62601C11.624 9.21401 10.943 10.872 9.857 11.179C9.73199 11.2138 9.60278 11.2313 9.473 11.231C8.479 11.231 7.494 10.225 7.128 8.83801C6.924 8.06201 6.941 7.38001 7.175 6.72601C7.404 6.08101 7.818 5.64801 8.338 5.50101C8.463 5.46601 8.592 5.44801 8.723 5.44801C9.923 5.44801 10.695 5.94601 11.173 7.62601ZM18.961 11V8.00001H16.961V11H13.961V13H16.961V16H18.961V13H21.961V11H18.961Z" fill="#D2E0F7"/>
</svg>
