<svg width="32" height="32" viewBox="0 0 32 32" fill="none" xmlns="http://www.w3.org/2000/svg">
<rect x="32" y="32" width="32" height="32" rx="16" transform="rotate(-180 32 32)" fill="white"/>
<path d="M30 16C30 13.2311 29.1789 10.5243 27.6406 8.22202C26.1022 5.91973 23.9157 4.12531 21.3576 3.06569C18.7994 2.00606 15.9845 1.72881 13.2687 2.26901C10.553 2.8092 8.05844 4.14257 6.10051 6.10051C4.14257 8.05844 2.8092 10.553 2.26901 13.2687C1.72881 15.9845 2.00606 18.7994 3.06569 21.3576C4.12531 23.9157 5.91973 26.1022 8.22202 27.6406C10.5243 29.1789 13.2311 30 16 30C19.713 30 23.274 28.525 25.8995 25.8995C28.525 23.274 30 19.713 30 16ZM24 17H11.85L17.43 22.607L16 24L8 16L16 8L17.43 9.427L11.85 15L24 15V17Z" fill="#0A2E7A"/>
</svg>
