<svg width="27" height="26" viewBox="0 0 27 26" fill="none" xmlns="http://www.w3.org/2000/svg">
<g clip-path="url(#clip0_273_17332)">
<path d="M20.8672 0H7.05469C3.6892 0 0.960938 2.72826 0.960938 6.09375V19.9062C0.960938 23.2717 3.6892 26 7.05469 26H20.8672C24.2327 26 26.9609 23.2717 26.9609 19.9062V6.09375C26.9609 2.72826 24.2327 0 20.8672 0Z" fill="url(#paint0_radial_273_17332)"/>
<path d="M20.8672 0H7.05469C3.6892 0 0.960938 2.72826 0.960938 6.09375V19.9062C0.960938 23.2717 3.6892 26 7.05469 26H20.8672C24.2327 26 26.9609 23.2717 26.9609 19.9062V6.09375C26.9609 2.72826 24.2327 0 20.8672 0Z" fill="url(#paint1_radial_273_17332)"/>
<path d="M13.9619 2.84375C11.2036 2.84375 10.8574 2.85584 9.77413 2.90509C8.69289 2.95466 7.95484 3.12579 7.3091 3.37695C6.64102 3.63634 6.07441 3.98338 5.50992 4.54807C4.94493 5.11266 4.59789 5.67927 4.33769 6.34705C4.08581 6.99298 3.91448 7.73134 3.86583 8.81207C3.81738 9.89544 3.80469 10.2418 3.80469 13.0001C3.80469 15.7584 3.81688 16.1035 3.86603 17.1868C3.9158 18.268 4.08693 19.0061 4.33789 19.6518C4.59748 20.3199 4.94452 20.8865 5.50921 21.451C6.07359 22.016 6.64021 22.3639 7.30778 22.6232C7.95402 22.8744 8.69218 23.0455 9.77321 23.0951C10.8566 23.1444 11.2025 23.1565 13.9606 23.1565C16.7192 23.1565 17.0643 23.1444 18.1475 23.0951C19.2288 23.0455 19.9676 22.8744 20.6139 22.6232C21.2817 22.3639 21.8475 22.016 22.4117 21.451C22.9767 20.8865 23.3237 20.3199 23.584 19.6521C23.8336 19.0061 24.0051 18.2678 24.0558 17.187C24.1045 16.1037 24.1172 15.7584 24.1172 13.0001C24.1172 10.2418 24.1045 9.89564 24.0558 8.81227C24.0051 7.73104 23.8336 6.99309 23.584 6.34735C23.3237 5.67927 22.9767 5.11266 22.4117 4.54807C21.8469 3.98318 21.2819 3.63614 20.6133 3.37705C19.9658 3.12579 19.2274 2.95455 18.1461 2.90509C17.0628 2.85584 16.7179 2.84375 13.9587 2.84375H13.9619ZM13.0507 4.67401C13.3212 4.6736 13.6229 4.67401 13.9619 4.67401C16.6737 4.67401 16.995 4.68376 18.0659 4.73241C19.0561 4.7777 19.5936 4.94315 19.9516 5.08219C20.4256 5.26622 20.7635 5.4863 21.1188 5.84187C21.4742 6.19734 21.6942 6.53585 21.8787 7.00984C22.0178 7.36734 22.1834 7.90481 22.2285 8.89505C22.2772 9.96572 22.2877 10.2873 22.2877 12.9978C22.2877 15.7083 22.2772 16.0299 22.2285 17.1005C22.1832 18.0907 22.0178 18.6282 21.8787 18.9858C21.6947 19.4598 21.4742 19.7973 21.1188 20.1525C20.7633 20.508 20.4258 20.728 19.9516 20.9121C19.594 21.0518 19.0561 21.2168 18.0659 21.2621C16.9952 21.3108 16.6737 21.3213 13.9619 21.3213C11.2499 21.3213 10.9285 21.3108 9.85791 21.2621C8.86768 21.2164 8.33021 21.051 7.9719 20.9119C7.49801 20.7278 7.1594 20.5078 6.80393 20.1523C6.44846 19.7969 6.22848 19.4592 6.04394 18.985C5.9049 18.6274 5.73925 18.0899 5.69416 17.0997C5.64551 16.029 5.63576 15.7075 5.63576 12.9952C5.63576 10.2831 5.64551 9.96318 5.69416 8.89251C5.73945 7.90227 5.9049 7.3648 6.04394 7.0068C6.22807 6.5328 6.44846 6.1943 6.80403 5.83883C7.1595 5.48336 7.49801 5.26327 7.972 5.07884C8.33001 4.93919 8.86768 4.77415 9.85791 4.72865C10.7948 4.6863 11.1579 4.6736 13.0507 4.67147V4.67401ZM19.3833 6.36035C18.7104 6.36035 18.1645 6.90574 18.1645 7.5787C18.1645 8.25155 18.7104 8.79745 19.3833 8.79745C20.0561 8.79745 20.602 8.25155 20.602 7.5787C20.602 6.90584 20.0561 6.35994 19.3833 6.35994V6.36035ZM13.9619 7.78436C11.0815 7.78436 8.74621 10.1197 8.74621 13.0001C8.74621 15.8805 11.0815 18.2147 13.9619 18.2147C16.8423 18.2147 19.1768 15.8805 19.1768 13.0001C19.1768 10.1198 16.8421 7.78436 13.9616 7.78436H13.9619ZM13.9619 9.61462C15.8315 9.61462 17.3473 11.1302 17.3473 13.0001C17.3473 14.8698 15.8315 16.3856 13.9619 16.3856C12.0921 16.3856 10.5765 14.8698 10.5765 13.0001C10.5765 11.1302 12.0921 9.61462 13.9619 9.61462Z" fill="white"/>
</g>
<defs>
<radialGradient id="paint0_radial_273_17332" cx="0" cy="0" r="1" gradientUnits="userSpaceOnUse" gradientTransform="translate(7.86719 28.0025) rotate(-90) scale(25.7679 23.9662)">
<stop stop-color="#FFDD55"/>
<stop offset="0.1" stop-color="#FFDD55"/>
<stop offset="0.5" stop-color="#FF543E"/>
<stop offset="1" stop-color="#C837AB"/>
</radialGradient>
<radialGradient id="paint1_radial_273_17332" cx="0" cy="0" r="1" gradientUnits="userSpaceOnUse" gradientTransform="translate(-3.39416 1.87291) rotate(78.681) scale(11.5184 47.4792)">
<stop stop-color="#3771C8"/>
<stop offset="0.128" stop-color="#3771C8"/>
<stop offset="1" stop-color="#6600FF" stop-opacity="0"/>
</radialGradient>
<clipPath id="clip0_273_17332">
<rect width="26" height="26" fill="white" transform="translate(0.960938)"/>
</clipPath>
</defs>
</svg>
