<svg width="27" height="26" viewBox="0 0 27 26" fill="none" xmlns="http://www.w3.org/2000/svg">
<g clip-path="url(#clip0_273_17329)">
<path d="M26.3859 4.05528C26.2368 3.27146 25.9459 2.55687 25.5422 1.98269C25.1385 1.4085 24.6362 0.994733 24.0851 0.7826C22.0675 0 13.9477 0 13.9477 0C13.9477 0 5.82746 0.0236888 3.80994 0.806289C3.25884 1.01843 2.75644 1.43222 2.35275 2.00644C1.94907 2.58065 1.65819 3.29526 1.50908 4.07911C0.898826 9.17771 0.662098 16.9468 1.52584 21.8414C1.67496 22.6253 1.96584 23.3398 2.36953 23.914C2.77322 24.4882 3.27561 24.902 3.8267 25.1141C5.84422 25.8967 13.9643 25.8967 13.9643 25.8967C13.9643 25.8967 22.0842 25.8967 24.1016 25.1141C24.6527 24.902 25.1551 24.4883 25.5588 23.9141C25.9626 23.3399 26.2535 22.6253 26.4026 21.8414C27.0462 16.7356 27.2446 8.9713 26.3859 4.05528Z" fill="#FF0000"/>
<path d="M11.3633 18.4976L18.0993 12.9483L11.3633 7.39905V18.4976Z" fill="white"/>
</g>
<defs>
<clipPath id="clip0_273_17329">
<rect width="26" height="26" fill="white" transform="translate(0.960938)"/>
</clipPath>
</defs>
</svg>
